# xmcd CD database file generated by Grip 2.91
# 
# Track frame offsets:
#       150
#       22777
#       25200
#       47547
#       54191
#       69814
# 
# Disc length: 1103 seconds
# 
# Revision: 3
# Processed by: cddbd v1.4b41PL1 Copyright (c) Steve Scherf et al.
# Submitted via: Grip 2.91
# 
DISCID=37044d06
DTITLE=Mother of Moth - Delta
DYEAR=1900
DGENRE=
TTITLE0=Enoch's Blues
TTITLE1=Golden Dawn
TTITLE2=Crawling Kingsnake
TTITLE3=Smoke
TTITLE4=High John's Conqueror Root
TTITLE5=Mojo Woman Song
EXTD=
EXTT0=
EXTT1=
EXTT2=
EXTT3=
EXTT4=
EXTT5=
PLAYORDER=
